<?xml version="1.0" encoding="UTF-8"?>
<svg version="1.1" viewBox="0 0 2048 927" width="1280" height="1280" xmlns="http://www.w3.org/2000/svg">
<path transform="translate(543,184)" d="m0 0h32l14 3 17 7 15 10 12 11 9 10 10 15 12 23 8 21 7 25 6 31 3 26v56l-3 24-6 27-7 25-10 27-9 20-10 19-12 19-10 13-8 10-11 12-13 13-11 9-14 10-16 9-17 8-18 6-17 4-16 2h-24l-17-4-12-7-10-9-9-10-9-15-8-21-5-18-5-28-2-18-1-16v-43l3-31 5-35 8-38 7-26 7-23 11-29 9-20 11-21 10-16 12-16 9-10 14-14 15-11 17-9 16-5z" fill="#EE242C"/>
<path transform="translate(867,116)" d="m0 0h24l21 3 16 5 19 9 14 10 14 14 10 15 8 15 6 16 5 22 2 14 1 15v12l-2 27-4 20-5 16-6 15-8 16-9 15-9 12-11 13-9 9-14 11-14 9-17 8-17 5-12 2h-21l-19-3-15-5-4-2 6 16 8 24 9 25 7 24 1 5v16l-3 8-8 11-9 8-14 8-16 7-25 7-17 3h-25l-10-4-8-7-5-10-2-11-1-11v-209l-2-33-4-32-6-31-7-26-8-23-10-23-2-3v-3l26-5 29-8 55-18 31-10 30-8 24-4z" fill="#EE242C"/>
<path transform="translate(292,282)" d="m0 0h12l12 3 10 5 8 6 7 8 9 14 8 19 6 23 4 25 2 25v39l-3 32-4 24-7 30-12 36-6 15-10 21-10 16-12 16-9 10-8 8-14 10-15 8-16 5-16 3h-23l12 38 9 29 4 20v14l-2 10-5 12-7 12-12 13-13 10-16 8-13 4-11 2h-8l-7-4-6-9-6-18-4-24-2-20-7-108-6-69-7-50-6-30-8-31-8-23-10-23-6-11-3-5 23-13 18-11 22-15 17-12 14-10 54-39 16-11 21-14 17-10 16-8 12-4z" fill="#EE242C"/>
<path transform="translate(1459,134)" d="m0 0h22l27 3 25 6 36 12 43 15 26 8 25 5 19 2h20l-2 4-10 11-11 17-11 21-9 23-6 21-5 26-4 28-1 8-2 1-8-16-10-18-11-16-11-14-11-12-10-9-15-10-15-7-16-4h-19l-10 3-9 6-8 9-8 16-4 14-3 19-1 15v18l3 28 6 29 6 20 6 16 8 16 9 14 9 10 8 7 12 7 13 4 6 1h8l13-4 8-6 7-10 10-18 7-9 8-6 10-3h10l12 3 11 6 11 9 7 8 9 14 8 17 6 18 4 21v21l-2 11-6 11-7 8-9 5-11 4-16 3h-38l-35-3-27-4-24-5-24-7-17-6-16-7-16-8-18-11-16-12-20-18-9-10-12-15-10-15-12-22-11-27-8-28-6-29-3-23-2-24v-49l3-25 5-21 7-18 9-17 10-14 14-14 11-8 12-7 18-7 25-5z" fill="#EE242C"/>
<path transform="translate(1776,198)" d="m0 0h27l21 3 18 5 19 8 17 10 13 10 14 12 11 12 12 16 10 16 8 16 6 14 6 18 5 21 3 26v14l-2 12-5 12-8 10-9 8-19 10-30 10-49 13-20 7-10 6-7 8-1 2v11l4 12 7 14 10 14 9 10 5 5 9 6 8 3h7l9-4 8-7 7-11 12-27 7-13 7-8 7-4h11l10 4 10 9 7 10 8 18 7 23 4 24v28l-3 14-5 12-7 10-9 8-11 5-10 2h-25l-18-2-24-6-22-8-23-12-16-11-10-8-12-11-13-13-9-11-13-17-12-19-15-29-9-21-12-36-6-24-5-27-3-24-2-26v-32l3-32 5-25 5-15 8-16 8-11 8-9 11-8 16-8 14-4z" fill="#EE242C"/>
<path transform="translate(1181,165)" d="m0 0 5 3 8 6 11 5 18 4 11 1h11l17-3 29-8 15-2h6l1 2-5 31-2 22-1 21v13l2 38 5 44 17 119 3 27v31l-3 14-5 12-9 12-11 8-11 5-11 3-6 1h-29l-17-3-18-6-11-6-12-11-9-13-6-15-2-9-1-10v-15l3-29 7-63 5-54 3-54v-54l-2-29-3-22-3-13z" fill="#EE242C"/>
<path transform="translate(979,140)" d="m0 0 8 4 10 9 9 10 9 13 8 14 8 20 5 17 4 22 1 10v43l-2 17-6 25-7 20-8 16-8 15-12 17-8 10-12 13-13 12-16 11-12 7-20 8-21 5-8 1h-31l1 5 8 20 7 23 4 20v16l-4 13-6 10-9 10-7 6-13 8-15 7-21 7-22 5-15 2h-25l-15-5-9-6-4-5v-2l16 3h22l24-4 21-6 15-6 19-10 11-9 7-7 8-14 3-9v-21l-4-20-10-30-6-15v-2l9 1h24l14-2 18-5 18-8 16-10 13-10 13-12 7-7 13-17 10-15 12-23 9-24 6-25 3-25v-29l-3-26-4-20-7-20-8-16-9-14-11-12z" fill="#0F0808"/>
<path transform="translate(1237,54)" d="m0 0h12l14 3 12 5 12 7 13 13 7 12 4 14v16l-5 15-8 11-11 9-15 7-8 2h-22l-17-4-12-5-12-9-8-10-6-14-2-8v-24l5-13 8-10 11-8 11-5 11-3z" fill="#EE252C"/>
<path transform="translate(545,357)" d="m0 0h8l8 4 6 8 4 9 3 16v10l-3 24-7 28-8 24-8 16-7 11-9 10-9 6-5 2h-15l-6-4-6-9-4-12-1-12 2-19 8-36 10-30 8-17 8-12 9-10 8-5z" fill="#FDF8F6"/>
<path transform="translate(287,391)" d="m0 0 5 1 5 3 6 7 4 13 1 16-2 18-6 28-9 29-6 16-11 21-8 10-9 8-9 4h-11l-6-4-6-9-4-12-1-5v-13l3-19 8-33 8-23 7-16 9-16 9-11 8-7 10-5z" fill="#FDF8F6"/>
<path transform="translate(891,194)" d="m0 0h10l9 2 10 6 8 10 4 10v17l-5 17-7 17-10 16-11 13-9 8-14 8-5 2-6 1h-9l-10-3-6-4-7-8-5-12-2-9v-8l4-20 7-18 8-13 8-10 11-11 12-7 9-3z" fill="#FDF9F7"/>
<path transform="translate(363,572)" d="m0 0 2 3 4 25 2 8-1 7-12 23-9 14-13 17-12 13-11 10-17 11-17 8-13 4-15 3h-6l6 15 8 25 5 22 1 9v15l-3 15-6 14-7 11-11 13-11 10-14 9-17 8-18 5-16 2-8-2-10-5-7-8v-2l17 1 14-3 15-5 16-8 12-9 12-11 10-13 8-16 4-12 1-5v-23l-4-21-11-35-2-6 1-5 14-2 17-5 19-9 17-12 13-12 10-11 8-11 11-17 13-25 10-26z" fill="#0E0708"/>
<path transform="translate(1912,233)" d="m0 0 5 2 9 7 11 10 18 22 10 15 9 16 10 21 9 27 5 23 2 17v32l-3 13-7 14-9 11-9 8-11 7-14 7-6 1-9-1h-8l-9 2-11 7-8 6-16 5-27 8-10 5h-2l2 9 7 13 10 15 1 5-5-2-10-10-12-17-9-17-2-6 1-5 11-5 19-6 46-12 21-7 18-8 13-8 12-10 10-14 5-12 3-16v-20l-3-25-5-23-8-24-8-18-12-21-14-19-12-13-8-8z" fill="#12090A"/>
<path transform="translate(680,527)" d="m0 0 3 1v48l-10 19-14 21-13 17-12 13-17 17-11 9-14 10-17 10-20 9-18 6-23 5-18 2h-24l-16-3-13-5-12-7-8-8v-2l9 3 10 4 8 2 9 1h21l18-2 19-4 23-8 21-10 19-12 14-11 12-11 18-18 11-14 12-17 9-15 10-18 7-15z" fill="#100809"/>
<path transform="translate(1965,502)" d="m0 0 6 2 10 9 10 14 10 21 5 15 5 21 3 20v27l-3 17-6 16-7 11-9 10-10 7-9 4-20 4h-25l-18-2-24-5-24-8-16-8-19-10-16-11-7-7 1-2 25 14 12 7 22 8 20 5 19 3 10 1h26l14-3 16-8 10-9 8-11 7-16 4-19v-33l-4-24-7-25-10-21-9-13z" fill="#170D0D"/>
<path transform="translate(1821,315)" d="m0 0h8l8 3 8 6 8 11 4 9 3 13v13l-7 8-11 7-35 17-11 7-5 1-1-5v-44l3-17 8-15 8-9 8-4z" fill="#FDF8F5"/>
<path transform="translate(1426,557)" d="m0 0 14 7 17 10 22 11 24 9 23 7 33 7 41 5 15 1h43l17-3 15-5 13-8 8-8 6-9 3-9 2-9 4 2 10 15 3 4-1 6-7 12-9 10-9 6-11 5-21 5-10 1h-37l-37-3-33-5-30-7-33-11-25-11-22-12-15-10-10-8-3-3z" fill="#160B0B"/>
<path transform="translate(1345,460)" d="m0 0 4 5 12 22 5 9 1 5v38l-3 16-6 15-10 14-9 8-13 8-14 5-21 4h-26l-16-2-19-5-16-7-13-9-5-6 1-2 17 8 12 4 16 3 9 1h25l16-3 16-6 12-7 11-10 9-14 5-13 3-15 1-9v-20l-2-20z" fill="#120909"/>
<path transform="translate(1518,259)" d="m0 0h14l15 4 14 7 11 8 4 4v2l-6-2-14-6-8-2h-12l-9 4-5 4-6 11-5 15-3 19v35l3 24 6 29 6 19 7 16 10 16 4 6v2l-5-2-11-10-7-10-8-14-7-15-7-21-5-21-4-27-1-13v-25l3-21 4-13 5-10 7-8z" fill="#110809"/>
<path transform="translate(942,327)" d="m0 0 8 1 5 3 3 5v13l-5 15-9 16-9 10-9 9-13 8-12 5-15 5-20 4-14 2h-12l4-3 20-8 14-7 15-9 13-12 7-8 8-14 8-17 5-12 4-5z" fill="#FEAC90"/>
<path transform="translate(563,219)" d="m0 0h11l15 4 17 9 13 11 7 8 10 17 6 16 4 14 4 24 1 7v10l-3-3-7-20-8-16-10-16-11-12-10-9-15-9-19-8-10-5-3-4-1-5 4-9z" fill="#F8DED0"/>
<path transform="translate(283,413)" d="m0 0 5 1 1 3 1 19-4 10-8 15-9 23-5 18-6 26-2 12-3 6-7 6h-5l-2-8v-23l3-19 8-30 8-21 9-19 10-14z" fill="#070304"/>
<path transform="translate(547,378)" d="m0 0 4 1 4 12 1 6-6 12-8 15-6 16-4 14-6 24-4 28-5 5-5 2-4-1-2-5-1-6v-17l2-16 6-26 6-19 6-16 10-19 5-6z" fill="#070304"/>
<path transform="translate(290,302)" d="m0 0h10l13 4 9 7 5 4 8 11 7 14 1 3v12l-3 5-6 5h-6l-8-5-4-5-7-19-6-8-6-5-8-3-5-1h-18l-12 3-16 8-11 7-14 12-8 6-5 2 1-3h2l2-4 15-15 12-9 16-10 16-8 16-6z" fill="#FDF7F4"/>
<path transform="translate(1456,156)" d="m0 0h20l4 1v2l-15 4-20 6-17 9-11 9-8 10-16 28-6 5-9-2-6-5-1-2v-11l5-12 8-11 9-10 15-10 13-5 16-4z" fill="#FFAC90"/>
<path transform="translate(894,215)" d="m0 0 10 1 7 5 2 3-1 5-13 5-9 6-5 4-9 12-4 7-5 10-4 16-1 16-1 2-5 1-8-7-3-7-1-13 3-17 7-17 7-11 10-11 10-6z" fill="#080304"/>
<path transform="translate(1801,215)" d="m0 0h10l16 2 15 5 17 9 13 10 10 10 11 14 7 10 2 6-7-6-4-4v-2l-4-2-11-10-16-8-20-6-20-3-31-1-5-3-3-6 1-6 5-5 6-3z" fill="#F5C6B4"/>
<path transform="translate(1310,70)" d="m0 0 5 2 8 7 9 10 8 14 4 10 2 9v21l-4 16-6 13 6 2 3 3-1 5-6 9-9 20-4 9h-3l2-13 7-34-3-7-4-5-6-4 2-6 5-12 2-8v-24l-3-12-7-14-7-10z" fill="#150B0C"/>
<path transform="translate(722,466)" d="m0 0h1l-1 13-1 7v12l4 24 6 16 9 16 7 11 2 4v7l-4 5-6 3-8-1-8-7-5-8-5-11-2-8-1-9v-25l1-15 4-17 4-11z" fill="#FFAC90"/>
<path transform="translate(614,239)" d="m0 0 7 6 9 12 8 15 7 21 4 22 2 14v10l-3-3-7-20-8-16-10-16-11-12-10-9-5-4 7-1 11-6 1-6-2-4z" fill="#F4C7B6"/>
<path transform="translate(942,327)" d="m0 0 8 1 5 3 3 5v13l-5 15-5 9-6 3-4 4-6-1-7-6-2-10 7-16 2-10 4-7 2-2z" fill="#F8DFD1"/>
<path transform="translate(1242,73)" d="m0 0h14l12 4 11 8 9 11 6 13 3 13-1 8-5-5-6-12-8-9-14-7-12-3-9-2-5-3-1-1v-8l3-5z" fill="#FFAC90"/>
<path transform="translate(411,584)" d="m0 0 4 4 8 16 7 11 5 6 11 8 12 6 13 5 4 3v7l-4 4-9 1-13-4-9-5-10-9-7-10-6-14-5-19z" fill="#F4C7B5"/>
<path transform="translate(290,302)" d="m0 0h10l13 4v1l-10 2-1 1 1 9 3 9 4 7-1 3-6-8-6-5-8-3-5-1h-18l-12 3-16 8-11 7-14 12-8 6-5 2 1-3h2l2-4 15-15 12-9 16-10 16-8 16-6z" fill="#F8DBCC"/>
<path transform="translate(1801,215)" d="m0 0h10l16 2 5 2 2 5-1 6-5 7-24 1h-17l-5-5-1-6 3-6 6-4z" fill="#FDF9F7"/>
<path transform="translate(139,754)" d="m0 0h1l-1 28 2 14 6 16 10 15 3 6-1 5-2 1h-8l-8-7-6-9-5-15-1-6v-22l6-20z" fill="#F5C5B3"/>
<path transform="translate(1300,457)" d="m0 0 5 1 4 4 4 12 2 15v17l-4 20-8 16-3 4h-2l3-9 3-14v-18l-6-21-5-14v-8l3-3z" fill="#F8E0D3"/>
<path transform="translate(1820,337)" d="m0 0h9l5 5 4 5-1 6-6 8-5 15-9 6-8 3h-2v-11l2-17 5-13 3-5z" fill="#090304"/>
<path transform="translate(1675,267)" d="m0 0h1v8l-5 34-2 21-1 53-2 2-9-1-11-8-2-5 10-5 4-7 4-29 4-28 7-29z" fill="#291010"/>
<path transform="translate(1456,156)" d="m0 0h20l4 1v2l-15 4-20 6-17 9-6 5-7 1-5-5-6-3-2-2 1-4 14-7 14-4 12-2z" fill="#F5C6B4"/>
<path transform="translate(1947,597)" d="m0 0h6l5 4 2 6v14l-6 12-9 9-10 6-13 4-9 1h-11l3-3 17-5 10-6 5-4 6-12v-23z" fill="#F8D7C7"/>
<path transform="translate(930,342)" d="m0 0h1l-1 7-6 15 2 9 8 6 5-1 6-5h2l-2 5-15 15-6 4-6 2-5-2h-10l-6 3h-6l4-6 10-9 8-9 8-14 8-17z" fill="#F4C8B7"/>
<path transform="translate(563,219)" d="m0 0h11l12 3v2l5 2 3 2v7l-3 3-15 5-2 1h-11l-7-5-2-7 4-9z" fill="#FDF9F6"/>
<path transform="translate(924,145)" d="m0 0 12 1 11 6 6 5 9 12 6 13 1 10-4-2-8-13-9-10-8-6-9-3-15-3-3-2v-5l7-2z" fill="#F4C8B6"/>
<path transform="translate(1674,505)" d="m0 0h5l7 8 4 10v18l-5 16-8 13-3 4h-2l3-10 4-17v-11l-3-9-5-14v-6z" fill="#F7DCCD"/>
<path transform="translate(351,292)" d="m0 0 5 2 8 7 8 9 9 14 8 16-1 9-4 15h-2l-9-32-8-18-10-16z" fill="#1C0B0C"/>
<path transform="translate(632,263)" d="m0 0 3 3 5 12 5 15 4 22 2 14v10l-3-3-7-20-8-16-10-16-2-4 5 5 3 1 8-2-4-17z" fill="#FFAC90"/>
<path transform="translate(1271,81)" d="m0 0 4 1 7 6 7 10 5 11 3 13-1 8-5-5-6-12-8-9-6-5-1-9-2-6 3-1z" fill="#F8DDCF"/>
<path transform="translate(939,329)" d="m0 0h13l5 5 1 2v13l-1 4-2 1-2 5h-4v-2h-2l-6-11-5-7v-6z" fill="#FDF9F7"/>
<path transform="translate(1812,216)" d="m0 0h9l10 2 3 6-1 6-5 7-24 1h-17l-1-2h20l2-7 6-8h2l1-4h-5z" fill="#F8DFD2"/>
<path transform="translate(144,807)" d="m0 0 2 2 4 8 9 13 1 7-3 2h-8l-8-7-6-9-4-11 1-3 3 1v2l3 1v2h2l4 4-1-7z" fill="#FFAC90"/>
<path transform="translate(1456,156)" d="m0 0h20l4 1v2l-15 4-20 6-9 2-4-1-1-5 2-4h3l1-3z" fill="#F8D6C6"/>
<path transform="translate(1300,457)" d="m0 0 5 1 4 4 2 12-1 27-2-1-3-15-5-6-2-4-2-1v-4h-3v-8l3-3z" fill="#FDF9F6"/>
<path transform="translate(1953,630)" d="m0 0h2l-2 4-8 8-10 6-13 4-9 1h-11l3-3 17-5 10-6 5-4 3-4v2l6 1z" fill="#F5C5B2"/>
<path transform="translate(1860,233)" d="m0 0 5 2 13 12 10 11 10 14 4 7-1 2-10-10v-2l-4-2-11-10-5-4h2l-3-6-11-11z" fill="#FEAC90"/>
<path transform="translate(411,584)" d="m0 0 4 4 8 16 7 12-2 1v12l5 8-1 2-6-7-8-16-5-17-2-11z" fill="#FFAC90"/>
<path transform="translate(1723,186)" d="m0 0 8 1 6 4v2l-16 10-10 9-14 14 2-6 8-11 11-13z" fill="#241010"/>
<path transform="translate(942,159)" d="m0 0h12l7 8 7 15 1 10-4-2-8-13-9-10-5-4z" fill="#F8D9C9"/>
<path transform="translate(1312,474)" d="m0 0h1l2 15v17l-4 20-8 16-3 4h-2l3-9 3-14v-18l-6-21 1-3 6 16 1 7v15l4 1 2-20z" fill="#FAB9A2"/>
<path transform="translate(1672,506)" d="m0 0 2 1-1 4 7 14 4 10 1 22-8 13-3 4h-2l3-10 4-17v-11l-3-9-5-14v-6z" fill="#F7C2AE"/>
<path transform="translate(459,637)" d="m0 0 8 1 8 5v7l-4 4-9 1-5-1 1-8 1-4z" fill="#FDF3EE"/>
<path transform="translate(722,466)" d="m0 0h1l-1 13-1 7v26h-2l-6-8v-13l5-17z" fill="#F5C5B2"/>
<path transform="translate(445,632)" d="m0 0h6l10 4-2 1 1 7-3 9-6-1-8-4v-3l3-2z" fill="#F8DDCF"/>
<path transform="translate(1426,557)" d="m0 0 14 7 17 10 22 11 24 9-4 1-25-10-17-8-10-6h-2l9 6-1 2-14-9-10-8-3-3z" fill="#F4736A"/>
<path transform="translate(1271,81)" d="m0 0 4 1 6 5-3 5 4 10 2 8-7-6-6-5-1-9-2-6 3-1z" fill="#F5C5B3"/>
<path transform="translate(924,145)" d="m0 0 12 1 9 5-2 1h-7l-2 1-10-3-10-1 1 3 6 1 7 1 9 3 3 3-9-2-15-3-3-2v-5l7-2z" fill="#FFAC90"/>
<path transform="translate(1947,597)" d="m0 0h6l5 4v16l-2 1-5-4-1-2-1-9-3-2z" fill="#FDF8F4"/>
<path transform="translate(1933,638)" d="m0 0 2 1-5 4-2 1 5 1 4 2-15 5-9 1h-11l3-3 17-5 10-6z" fill="#FEAC90"/>
<path transform="translate(232,333)" d="m0 0 2 1-13 10-14 12-5 3-2-1 1-2h2l2-4 15-15 5-1z" fill="#FEAC90"/>
<path transform="translate(1801,647)" d="m0 0 12 6 22 13-2 1-11-5 1 3-5-2-11-8-6-6z" fill="#FBB59C"/>
<path transform="translate(1675,267)" d="m0 0h1v8l-5 34-1 9h-1v-22l-1-3 6-23z" fill="#ED4F4E"/>
<path transform="translate(1294,470)" d="m0 0h2v4l3 1 3 6 4 4v11l1 6v17h-1l-2-22-5-14v-2h-2z" fill="#F8D6C6"/>
<path transform="translate(243,324)" d="m0 0 6 1-4 3-9 5-10 3-4 2 2-4 8-6 5-1z" fill="#F6C2AE"/>
<path transform="translate(1312,474)" d="m0 0h1l2 15v17l-4 20h-1l1-19 1-7z" fill="#F9BBA5"/>
<path transform="translate(645,205)" d="m0 0 5 2 8 7 5 11-5-2-8-10-5-6z" fill="#F8BDA8"/>
<path transform="translate(963,173)" d="m0 0 3 4 3 9v6l-4-2-4-8h2l-1-6z" fill="#F6C2AE"/>
<path transform="translate(1290,115)" d="m0 0h3l1 2 2-1 1 9-1 5-5-5-3-8h2z" fill="#F8BDA8"/>
<path transform="translate(1674,505)" d="m0 0h5l3 5-3 4-1 3-2-1v-2h-2l-2-3 1-4z" fill="#FDF8F5"/>
<path transform="translate(1853,243)" d="m0 0 8 1 7 4 1 4-21-7 4-1z" fill="#FFAC90"/>
<path transform="translate(136,765)" d="m0 0h2v24l-3-2-1-4v-9l1-8z" fill="#F8E2D5"/>
<path transform="translate(1810,656)" d="m0 0 13 3 12 7-2 1-11-5 1 3-5-2-8-6z" fill="#F15250"/>
<path transform="translate(1675,267)" d="m0 0h1v8l-2 13-3 1-1-5z" fill="#FEAE92"/>
<path transform="translate(139,754)" d="m0 0h1l-1 19h-1v-8l-5 3 3-10z" fill="#F8BEA9"/>
<path transform="translate(1912,233)" d="m0 0 5 2 9 7 2 3-4 1-12-12z" fill="#B34743"/>
<path transform="translate(268,318)" d="m0 0h17l4 1v2h-28l4-2z" fill="#FAB8A1"/>
<path transform="translate(1426,557)" d="m0 0 14 7 1 2-4-1 1 3-4-2-8-7z" fill="#FBB69E"/>
<path transform="translate(1707,209)" d="m0 0 1 2-1 2 2 1-12 12 2-6z" fill="#ED8A7C"/>
<path transform="translate(1436,564)" d="m0 0 8 4-1 2 11 7-1 2-14-9-3-4z" fill="#ED5653"/>
<path transform="translate(1567,275)" d="m0 0 5 3 4 4v2l-6-2-7-3v-2l4 1z" fill="#F25754"/>
<path transform="translate(655,214)" d="m0 0h3l5 11-5-2-4-5z" fill="#F68A7C"/>
<path transform="translate(722,466)" d="m0 0h1l-1 13-3 4v-11z" fill="#F9C8B5"/>
<path transform="translate(930,342)" d="m0 0h1l-1 7-6 14-3 1 2-6z" fill="#F9BAA4"/>
<path transform="translate(1302,489)" d="m0 0 3 1 2 12v17h-1l-2-22-2-5z" fill="#F4CAB9"/>
<path transform="translate(1196,578)" d="m0 0 7 3 3 6 2 3-4-2-5-4-3-4z" fill="#F89583"/>
<path transform="translate(1302,533)" d="m0 0 2 3 2-1-2 5-4 6h-2l3-9z" fill="#FEAC91"/>
<path transform="translate(1324,207)" d="m0 0h1l1 6 2-2-1 5-3 5-2-1z" fill="#BE4E4A"/>
<path transform="translate(967,182)" d="m0 0 2 4v6l-4-2-1-3z" fill="#FFAC90"/>
<path transform="translate(862,289)" d="m0 0h1v20h-6l1-2h3z" fill="#F59F95"/>
<path transform="translate(379,352)" d="m0 0 3 2 3 5-1 5h-2z" fill="#EC9083"/>
<path transform="translate(351,292)" d="m0 0 5 2 5 5h-3l-1 2z" fill="#F7A08F"/>
<path transform="translate(1675,267)" d="m0 0h1v8l-3 8-2-3z" fill="#F4C8B7"/>
<path transform="translate(363,572)" d="m0 0 2 3 1 10-2-2v-4l-3-1z" fill="#F88F7F"/>
<path transform="translate(244,320)" d="m0 0 2 1-3 4-9 4 1-3z" fill="#F8D1C0"/>
<path transform="translate(1676,264)" d="m0 0" fill="#F4CAB9"/>
<path transform="translate(1693,230)" d="m0 0" fill="#F4CAB9"/>
<path transform="translate(1694,229)" d="m0 0" fill="#F4CAB9"/>
<path transform="translate(1696,226)" d="m0 0" fill="#F4CAB9"/>
</svg>
